<svg width="32" height="32" viewBox="0 0 32 32" fill="none" xmlns="http://www.w3.org/2000/svg">
<path d="M16 24V17M16 17C16.6746 17.0005 17.3466 16.9159 18 16.748M16 17C15.3254 17.0005 14.6534 16.9159 14 16.748M19 26.7187C17.0177 27.0951 14.9823 27.0951 13 26.7187M18 29.896C16.6703 30.0352 15.3297 30.0352 14 29.896M19 24V23.744C19 22.4334 19.8773 21.3134 21.0107 20.656C22.9147 19.5534 24.4019 17.8536 25.2419 15.8201C26.0819 13.7865 26.2277 11.5327 25.6569 9.40781C25.086 7.28293 23.8303 5.40563 22.0843 4.06679C20.3384 2.72796 18.1996 2.00232 15.9993 2.00232C13.7991 2.00232 11.6603 2.72796 9.91432 4.06679C8.16832 5.40563 6.91262 7.28293 6.34177 9.40781C5.77092 11.5327 5.91679 13.7865 6.75678 15.8201C7.59678 17.8536 9.08399 19.5534 10.988 20.656C12.1213 21.3134 13 22.4334 13 23.744V24" stroke="#FBFBFB" stroke-width="2" stroke-linecap="round" stroke-linejoin="round"/>
</svg>
