<svg width="130" height="35" viewBox="0 0 130 35" fill="none" xmlns="http://www.w3.org/2000/svg">
<g clip-path="url(#clip0_61_12)">
<mask id="path-1-outside-1_61_12" maskUnits="userSpaceOnUse" x="5" y="4" width="119" height="27" fill="black">
<rect fill="white" x="5" y="4" width="119" height="27"/>
<path d="M6.39258 5.69824H9.69092L17.5352 15.2856L25.3794 5.69824H28.6777V30H25.0718V11.8335L19.0391 19.1479H16.0483L9.99854 11.8335V30H6.39258V5.69824ZM40.1026 5.69824H44.5973L53.296 30H49.4508L46.8019 22.6855H40.0172L41.316 19.0967H45.503L42.3585 10.415L35.2491 30H31.4039L40.1026 5.69824ZM55.6975 12.5342C55.6975 11.2695 56.0108 10.1245 56.6374 9.09912C57.264 8.06234 58.1014 7.23633 59.1496 6.62109C60.1978 6.00586 61.3599 5.69824 62.6359 5.69824H75.3679V9.28711H62.6359C61.7131 9.28711 60.927 9.60612 60.2775 10.2441C59.6281 10.8708 59.3034 11.6341 59.3034 12.5342V23.2324C59.3034 24.0983 59.6281 24.8446 60.2775 25.4712C60.927 26.0864 61.7131 26.394 62.6359 26.394H75.3679V30H62.6359C61.3599 30 60.1978 29.6981 59.1496 29.0942C58.1014 28.4904 57.264 27.6815 56.6374 26.6675C56.0108 25.6421 55.6975 24.5142 55.6975 23.2837V12.5342ZM79.3074 5.69824H92.159C93.2641 5.69824 94.2667 5.97168 95.1668 6.51855C96.0783 7.05404 96.8017 7.77181 97.3372 8.67188C97.8841 9.57194 98.1575 10.5745 98.1575 11.6797V14.1064C98.1575 15.2116 97.8898 16.2085 97.3543 17.0972C96.8302 17.9858 96.1124 18.6922 95.201 19.2163C94.2895 19.7404 93.2698 20.0024 92.1419 20.0024L99.388 30H94.9959L87.7498 20.0024H84.9642V16.4136H92.159C92.8312 16.4136 93.4008 16.1857 93.868 15.73C94.3351 15.2629 94.5686 14.7046 94.5686 14.0552V11.6797C94.5686 11.0189 94.3351 10.4549 93.868 9.98779C93.4008 9.52067 92.8312 9.28711 92.159 9.28711H82.9134V30H79.3074V5.69824ZM102.473 12.5342C102.473 11.2695 102.798 10.1245 103.447 9.09912C104.108 8.06234 104.985 7.23633 106.079 6.62109C107.173 6.00586 108.386 5.69824 109.719 5.69824H115.41C116.743 5.69824 117.956 6.00586 119.05 6.62109C120.155 7.23633 121.033 8.06234 121.682 9.09912C122.331 10.1245 122.656 11.2695 122.656 12.5342V23.1641C122.656 24.4173 122.331 25.5623 121.682 26.5991C121.033 27.6359 120.155 28.4619 119.05 29.0771C117.956 29.6924 116.743 30 115.41 30H109.719C108.386 30 107.173 29.6924 106.079 29.0771C104.985 28.4619 104.108 27.6359 103.447 26.5991C102.798 25.5623 102.473 24.4173 102.473 23.1641V12.5342ZM106.079 23.1812C106.079 24.0698 106.432 24.8332 107.139 25.4712C107.856 26.0978 108.717 26.4111 109.719 26.4111H115.41C116.424 26.4111 117.284 26.0978 117.991 25.4712C118.697 24.8332 119.05 24.0698 119.05 23.1812V12.5171C119.05 11.6284 118.697 10.8708 117.991 10.2441C117.284 9.60612 116.424 9.28711 115.41 9.28711H109.719C108.717 9.28711 107.856 9.60612 107.139 10.2441C106.432 10.8708 106.079 11.6284 106.079 12.5171V23.1812Z"/>
</mask>
<path d="M6.39258 5.69824H9.69092L17.5352 15.2856L25.3794 5.69824H28.6777V30H25.0718V11.8335L19.0391 19.1479H16.0483L9.99854 11.8335V30H6.39258V5.69824ZM40.1026 5.69824H44.5973L53.296 30H49.4508L46.8019 22.6855H40.0172L41.316 19.0967H45.503L42.3585 10.415L35.2491 30H31.4039L40.1026 5.69824ZM55.6975 12.5342C55.6975 11.2695 56.0108 10.1245 56.6374 9.09912C57.264 8.06234 58.1014 7.23633 59.1496 6.62109C60.1978 6.00586 61.3599 5.69824 62.6359 5.69824H75.3679V9.28711H62.6359C61.7131 9.28711 60.927 9.60612 60.2775 10.2441C59.6281 10.8708 59.3034 11.6341 59.3034 12.5342V23.2324C59.3034 24.0983 59.6281 24.8446 60.2775 25.4712C60.927 26.0864 61.7131 26.394 62.6359 26.394H75.3679V30H62.6359C61.3599 30 60.1978 29.6981 59.1496 29.0942C58.1014 28.4904 57.264 27.6815 56.6374 26.6675C56.0108 25.6421 55.6975 24.5142 55.6975 23.2837V12.5342ZM79.3074 5.69824H92.159C93.2641 5.69824 94.2667 5.97168 95.1668 6.51855C96.0783 7.05404 96.8017 7.77181 97.3372 8.67188C97.8841 9.57194 98.1575 10.5745 98.1575 11.6797V14.1064C98.1575 15.2116 97.8898 16.2085 97.3543 17.0972C96.8302 17.9858 96.1124 18.6922 95.201 19.2163C94.2895 19.7404 93.2698 20.0024 92.1419 20.0024L99.388 30H94.9959L87.7498 20.0024H84.9642V16.4136H92.159C92.8312 16.4136 93.4008 16.1857 93.868 15.73C94.3351 15.2629 94.5686 14.7046 94.5686 14.0552V11.6797C94.5686 11.0189 94.3351 10.4549 93.868 9.98779C93.4008 9.52067 92.8312 9.28711 92.159 9.28711H82.9134V30H79.3074V5.69824ZM102.473 12.5342C102.473 11.2695 102.798 10.1245 103.447 9.09912C104.108 8.06234 104.985 7.23633 106.079 6.62109C107.173 6.00586 108.386 5.69824 109.719 5.69824H115.41C116.743 5.69824 117.956 6.00586 119.05 6.62109C120.155 7.23633 121.033 8.06234 121.682 9.09912C122.331 10.1245 122.656 11.2695 122.656 12.5342V23.1641C122.656 24.4173 122.331 25.5623 121.682 26.5991C121.033 27.6359 120.155 28.4619 119.05 29.0771C117.956 29.6924 116.743 30 115.41 30H109.719C108.386 30 107.173 29.6924 106.079 29.0771C104.985 28.4619 104.108 27.6359 103.447 26.5991C102.798 25.5623 102.473 24.4173 102.473 23.1641V12.5342ZM106.079 23.1812C106.079 24.0698 106.432 24.8332 107.139 25.4712C107.856 26.0978 108.717 26.4111 109.719 26.4111H115.41C116.424 26.4111 117.284 26.0978 117.991 25.4712C118.697 24.8332 119.05 24.0698 119.05 23.1812V12.5171C119.05 11.6284 118.697 10.8708 117.991 10.2441C117.284 9.60612 116.424 9.28711 115.41 9.28711H109.719C108.717 9.28711 107.856 9.60612 107.139 10.2441C106.432 10.8708 106.079 11.6284 106.079 12.5171V23.1812Z" fill="black"/>
<path d="M6.39258 5.69824V4.69824H5.39258V5.69824H6.39258ZM9.69092 5.69824L10.4649 5.065L10.1648 4.69824H9.69092V5.69824ZM17.5352 15.2856L16.7612 15.9189L17.5352 16.8648L18.3091 15.9189L17.5352 15.2856ZM25.3794 5.69824V4.69824H24.9055L24.6054 5.065L25.3794 5.69824ZM28.6777 5.69824H29.6777V4.69824H28.6777V5.69824ZM28.6777 30V31H29.6777V30H28.6777ZM25.0718 30H24.0718V31H25.0718V30ZM25.0718 11.8335H26.0718V9.04939L24.3003 11.1972L25.0718 11.8335ZM19.0391 19.1479V20.1479H19.5105L19.8105 19.7842L19.0391 19.1479ZM16.0483 19.1479L15.2778 19.7853L15.5777 20.1479H16.0483V19.1479ZM9.99854 11.8335L10.7691 11.1961L8.99854 9.05545V11.8335H9.99854ZM9.99854 30V31H10.9985V30H9.99854ZM6.39258 30H5.39258V31H6.39258V30ZM6.39258 5.69824V6.69824H9.69092V5.69824V4.69824H6.39258V5.69824ZM9.69092 5.69824L8.91696 6.33148L16.7612 15.9189L17.5352 15.2856L18.3091 14.6524L10.4649 5.065L9.69092 5.69824ZM17.5352 15.2856L18.3091 15.9189L26.1534 6.33148L25.3794 5.69824L24.6054 5.065L16.7612 14.6524L17.5352 15.2856ZM25.3794 5.69824V6.69824H28.6777V5.69824V4.69824H25.3794V5.69824ZM28.6777 5.69824H27.6777V30H28.6777H29.6777V5.69824H28.6777ZM28.6777 30V29H25.0718V30V31H28.6777V30ZM25.0718 30H26.0718V11.8335H25.0718H24.0718V30H25.0718ZM25.0718 11.8335L24.3003 11.1972L18.2676 18.5117L19.0391 19.1479L19.8105 19.7842L25.8432 12.4698L25.0718 11.8335ZM19.0391 19.1479V18.1479H16.0483V19.1479V20.1479H19.0391V19.1479ZM16.0483 19.1479L16.8189 18.5106L10.7691 11.1961L9.99854 11.8335L9.22796 12.4708L15.2778 19.7853L16.0483 19.1479ZM9.99854 11.8335H8.99854V30H9.99854H10.9985V11.8335H9.99854ZM9.99854 30V29H6.39258V30V31H9.99854V30ZM6.39258 30H7.39258V5.69824H6.39258H5.39258V30H6.39258ZM40.1026 5.69824V4.69824H39.3984L39.1611 5.36123L40.1026 5.69824ZM44.5973 5.69824L45.5388 5.36123L45.3015 4.69824H44.5973V5.69824ZM53.296 30V31H54.7161L54.2375 29.663L53.296 30ZM49.4508 30L48.5105 30.3405L48.7494 31H49.4508V30ZM46.8019 22.6855L47.7421 22.345L47.5033 21.6855H46.8019V22.6855ZM40.0172 22.6855L39.0769 22.3452L38.5918 23.6855H40.0172V22.6855ZM41.316 19.0967V18.0967H40.6144L40.3757 18.7564L41.316 19.0967ZM45.503 19.0967V20.0967H46.9288L46.4433 18.7561L45.503 19.0967ZM42.3585 10.415L43.2987 10.0745L42.3595 7.4815L41.4185 10.0738L42.3585 10.415ZM35.2491 30V31H35.95L36.1891 30.3412L35.2491 30ZM31.4039 30L30.4624 29.663L29.9838 31H31.4039V30ZM40.1026 5.69824V6.69824H44.5973V5.69824V4.69824H40.1026V5.69824ZM44.5973 5.69824L43.6558 6.03525L52.3545 30.337L53.296 30L54.2375 29.663L45.5388 5.36123L44.5973 5.69824ZM53.296 30V29H49.4508V30V31H53.296V30ZM49.4508 30L50.391 29.6595L47.7421 22.345L46.8019 22.6855L45.8616 23.0261L48.5105 30.3405L49.4508 30ZM46.8019 22.6855V21.6855H40.0172V22.6855V23.6855H46.8019V22.6855ZM40.0172 22.6855L40.9575 23.0259L42.2563 19.437L41.316 19.0967L40.3757 18.7564L39.0769 22.3452L40.0172 22.6855ZM41.316 19.0967V20.0967H45.503V19.0967V18.0967H41.316V19.0967ZM45.503 19.0967L46.4433 18.7561L43.2987 10.0745L42.3585 10.415L41.4183 10.7556L44.5628 19.4372L45.503 19.0967ZM42.3585 10.415L41.4185 10.0738L34.3091 29.6588L35.2491 30L36.1891 30.3412L43.2985 10.7563L42.3585 10.415ZM35.2491 30V29H31.4039V30V31H35.2491V30ZM31.4039 30L32.3454 30.337L41.0441 6.03525L40.1026 5.69824L39.1611 5.36123L30.4624 29.663L31.4039 30ZM56.6374 9.09912L57.4907 9.62058L57.4932 9.61638L56.6374 9.09912ZM75.3679 5.69824H76.3679V4.69824H75.3679V5.69824ZM75.3679 9.28711V10.2871H76.3679V9.28711H75.3679ZM60.2775 10.2441L60.9719 10.9638L60.9784 10.9575L60.2775 10.2441ZM60.2775 25.4712L59.5831 26.1908L59.5898 26.1971L60.2775 25.4712ZM75.3679 26.394H76.3679V25.394H75.3679V26.394ZM75.3679 30V31H76.3679V30H75.3679ZM56.6374 26.6675L55.7841 27.1889L55.7867 27.1932L56.6374 26.6675ZM55.6975 12.5342H56.6975C56.6975 11.4435 56.9651 10.4806 57.4907 9.62057L56.6374 9.09912L55.7841 8.57767C55.0564 9.76845 54.6975 11.0956 54.6975 12.5342H55.6975ZM56.6374 9.09912L57.4932 9.61638C58.0335 8.72242 58.7506 8.01484 59.6558 7.48351L59.1496 6.62109L58.6434 5.75868C57.4523 6.45781 56.4945 7.40226 55.7816 8.58186L56.6374 9.09912ZM59.1496 6.62109L59.6558 7.48351C60.5427 6.96293 61.5286 6.69824 62.6359 6.69824V5.69824V4.69824C61.1912 4.69824 59.8529 5.04878 58.6434 5.75868L59.1496 6.62109ZM62.6359 5.69824V6.69824H75.3679V5.69824V4.69824H62.6359V5.69824ZM75.3679 5.69824H74.3679V9.28711H75.3679H76.3679V5.69824H75.3679ZM75.3679 9.28711V8.28711H62.6359V9.28711V10.2871H75.3679V9.28711ZM62.6359 9.28711V8.28711C61.455 8.28711 60.416 8.70626 59.5767 9.5308L60.2775 10.2441L60.9784 10.9575C61.4379 10.506 61.9712 10.2871 62.6359 10.2871V9.28711ZM60.2775 10.2441L59.5832 9.52452C58.739 10.339 58.3034 11.3619 58.3034 12.5342H59.3034H60.3034C60.3034 11.9063 60.5172 11.4025 60.9719 10.9638L60.2775 10.2441ZM59.3034 12.5342H58.3034V23.2324H59.3034H60.3034V12.5342H59.3034ZM59.3034 23.2324H58.3034C58.3034 24.3823 58.7477 25.3846 59.5832 26.1908L60.2775 25.4712L60.9719 24.7516C60.5086 24.3045 60.3034 23.8143 60.3034 23.2324H59.3034ZM60.2775 25.4712L59.5898 26.1971C60.4314 26.9944 61.4662 27.394 62.6359 27.394V26.394V25.394C61.96 25.394 61.4225 25.1784 60.9653 24.7452L60.2775 25.4712ZM62.6359 26.394V27.394H75.3679V26.394V25.394H62.6359V26.394ZM75.3679 26.394H74.3679V30H75.3679H76.3679V26.394H75.3679ZM75.3679 30V29H62.6359V30V31H75.3679V30ZM62.6359 30V29C61.5251 29 60.5367 28.7393 59.6488 28.2277L59.1496 29.0942L58.6504 29.9607C59.8589 30.6569 61.1947 31 62.6359 31V30ZM59.1496 29.0942L59.6488 28.2277C58.742 27.7053 58.0262 27.0126 57.4881 26.1418L56.6374 26.6675L55.7867 27.1932C56.5018 28.3503 57.4609 29.2755 58.6504 29.9607L59.1496 29.0942ZM56.6374 26.6675L57.4907 26.146C56.9624 25.2816 56.6975 24.3348 56.6975 23.2837H55.6975H54.6975C54.6975 24.6935 55.0592 26.0026 55.7841 27.1889L56.6374 26.6675ZM55.6975 23.2837H56.6975V12.5342H55.6975H54.6975V23.2837H55.6975ZM79.3074 5.69824V4.69824H78.3074V5.69824H79.3074ZM95.1668 6.51855L94.6475 7.37317L94.6539 7.37702L94.6602 7.38077L95.1668 6.51855ZM97.3372 8.67188L96.4778 9.18319L96.4826 9.19114L97.3372 8.67188ZM97.3543 17.0972L96.4977 16.581L96.4929 16.5892L97.3543 17.0972ZM95.201 19.2163L95.6994 20.0832L95.201 19.2163ZM92.1419 20.0024V19.0024H90.1821L91.3322 20.5893L92.1419 20.0024ZM99.388 30V31H101.348L100.198 29.4131L99.388 30ZM94.9959 30L94.1862 30.5869L94.4856 31H94.9959V30ZM87.7498 20.0024L88.5595 19.4156L88.2601 19.0024H87.7498V20.0024ZM84.9642 20.0024H83.9642V21.0024H84.9642V20.0024ZM84.9642 16.4136V15.4136H83.9642V16.4136H84.9642ZM93.868 15.73L94.5663 16.4458L94.5751 16.4371L93.868 15.73ZM82.9134 9.28711V8.28711H81.9134V9.28711H82.9134ZM82.9134 30V31H83.9134V30H82.9134ZM79.3074 30H78.3074V31H79.3074V30ZM79.3074 5.69824V6.69824H92.159V5.69824V4.69824H79.3074V5.69824ZM92.159 5.69824V6.69824C93.0904 6.69824 93.9119 6.92618 94.6475 7.37317L95.1668 6.51855L95.6861 5.66394C94.6216 5.01718 93.4378 4.69824 92.159 4.69824V5.69824ZM95.1668 6.51855L94.6602 7.38077C95.4278 7.83171 96.0293 8.42935 96.4778 9.18317L97.3372 8.67188L98.1966 8.16058C97.5741 7.11427 96.7287 6.27636 95.6733 5.65634L95.1668 6.51855ZM97.3372 8.67188L96.4826 9.19114C96.9296 9.92681 97.1575 10.7482 97.1575 11.6797H98.1575H99.1575C99.1575 10.4009 98.8386 9.21707 98.1918 8.15261L97.3372 8.67188ZM98.1575 11.6797H97.1575V14.1064H98.1575H99.1575V11.6797H98.1575ZM98.1575 14.1064H97.1575C97.1575 15.042 96.9332 15.8584 96.4978 16.5811L97.3543 17.0972L98.2108 17.6133C98.8463 16.5586 99.1575 15.3811 99.1575 14.1064H98.1575ZM97.3543 17.0972L96.4929 16.5892C96.0585 17.3259 95.467 17.9098 94.7025 18.3494L95.201 19.2163L95.6994 20.0832C96.7579 19.4746 97.602 18.6458 98.2157 17.6052L97.3543 17.0972ZM95.201 19.2163L94.7025 18.3494C93.9537 18.78 93.108 19.0024 92.1419 19.0024V20.0024V21.0024C93.4316 21.0024 94.6253 20.7008 95.6994 20.0832L95.201 19.2163ZM92.1419 20.0024L91.3322 20.5893L98.5783 30.5869L99.388 30L100.198 29.4131L92.9516 19.4156L92.1419 20.0024ZM99.388 30V29H94.9959V30V31H99.388V30ZM94.9959 30L95.8056 29.4131L88.5595 19.4156L87.7498 20.0024L86.9401 20.5893L94.1862 30.5869L94.9959 30ZM87.7498 20.0024V19.0024H84.9642V20.0024V21.0024H87.7498V20.0024ZM84.9642 20.0024H85.9642V16.4136H84.9642H83.9642V20.0024H84.9642ZM84.9642 16.4136V17.4136H92.159V16.4136V15.4136H84.9642V16.4136ZM92.159 16.4136V17.4136C93.0834 17.4136 93.9062 17.0897 94.5663 16.4458L93.868 15.73L93.1696 15.0142C92.8955 15.2817 92.579 15.4136 92.159 15.4136V16.4136ZM93.868 15.73L94.5751 16.4371C95.2261 15.7861 95.5686 14.9749 95.5686 14.0552H94.5686H93.5686C93.5686 14.4343 93.4441 14.7397 93.1609 15.0229L93.868 15.73ZM94.5686 14.0552H95.5686V11.6797H94.5686H93.5686V14.0552H94.5686ZM94.5686 11.6797H95.5686C95.5686 10.7538 95.2298 9.93541 94.5751 9.28069L93.868 9.98779L93.1609 10.6949C93.4404 10.9744 93.5686 11.284 93.5686 11.6797H94.5686ZM93.868 9.98779L94.5751 9.28069C93.9168 8.62237 93.0912 8.28711 92.159 8.28711V9.28711V10.2871C92.5712 10.2871 92.8849 10.419 93.1609 10.6949L93.868 9.98779ZM92.159 9.28711V8.28711H82.9134V9.28711V10.2871H92.159V9.28711ZM82.9134 9.28711H81.9134V30H82.9134H83.9134V9.28711H82.9134ZM82.9134 30V29H79.3074V30V31H82.9134V30ZM79.3074 30H80.3074V5.69824H79.3074H78.3074V30H79.3074ZM103.447 9.09912L102.604 8.56164L102.602 8.56407L103.447 9.09912ZM119.05 6.62109L118.56 7.49268L118.564 7.49483L119.05 6.62109ZM121.682 9.09912L120.835 9.62996L120.837 9.63417L121.682 9.09912ZM119.05 29.0771L118.564 28.2034L118.56 28.2056L119.05 29.0771ZM103.447 26.5991L102.6 27.13L102.604 27.1366L103.447 26.5991ZM107.139 25.4712L106.468 26.2133L106.475 26.219L106.481 26.2245L107.139 25.4712ZM117.991 25.4712L118.654 26.2193L118.661 26.2133L117.991 25.4712ZM117.991 10.2441L117.32 10.9863L117.327 10.9922L117.991 10.2441ZM107.139 10.2441L107.802 10.9922L107.803 10.9915L107.139 10.2441ZM102.473 12.5342H103.473C103.473 11.4506 103.748 10.4926 104.292 9.63417L103.447 9.09912L102.602 8.56407C101.847 9.75643 101.473 11.0884 101.473 12.5342H102.473ZM103.447 9.09912L104.29 9.6366C104.861 8.74148 105.616 8.029 106.569 7.49267L106.079 6.62109L105.589 5.74952C104.355 6.44365 103.355 7.3832 102.604 8.56165L103.447 9.09912ZM106.079 6.62109L106.569 7.49267C107.504 6.96689 108.547 6.69824 109.719 6.69824V5.69824V4.69824C108.225 4.69824 106.842 5.04483 105.589 5.74952L106.079 6.62109ZM109.719 5.69824V6.69824H115.41V5.69824V4.69824H109.719V5.69824ZM115.41 5.69824V6.69824C116.582 6.69824 117.625 6.96689 118.56 7.49267L119.05 6.62109L119.54 5.74952C118.288 5.04483 116.904 4.69824 115.41 4.69824V5.69824ZM119.05 6.62109L118.564 7.49483C119.527 8.03093 120.278 8.74104 120.835 9.62996L121.682 9.09912L122.53 8.56828C121.787 7.38363 120.784 6.44173 119.537 5.74736L119.05 6.62109ZM121.682 9.09912L120.837 9.63417C121.381 10.4926 121.656 11.4506 121.656 12.5342H122.656H123.656C123.656 11.0884 123.282 9.75643 122.527 8.56407L121.682 9.09912ZM122.656 12.5342H121.656V23.1641H122.656H123.656V12.5342H122.656ZM122.656 23.1641H121.656C121.656 24.2344 121.382 25.1947 120.835 26.0683L121.682 26.5991L122.53 27.13C123.281 25.93 123.656 24.6002 123.656 23.1641H122.656ZM121.682 26.5991L120.835 26.0683C120.278 26.9572 119.527 27.6673 118.564 28.2034L119.05 29.0771L119.537 29.9509C120.784 29.2565 121.787 28.3146 122.53 27.13L121.682 26.5991ZM119.05 29.0771L118.56 28.2056C117.625 28.7313 116.582 29 115.41 29V30V31C116.904 31 118.288 30.6534 119.54 29.9487L119.05 29.0771ZM115.41 30V29H109.719V30V31H115.41V30ZM109.719 30V29C108.547 29 107.504 28.7313 106.569 28.2056L106.079 29.0771L105.589 29.9487C106.842 30.6534 108.225 31 109.719 31V30ZM106.079 29.0771L106.569 28.2056C105.616 27.6692 104.861 26.9568 104.29 26.0616L103.447 26.5991L102.604 27.1366C103.355 28.315 104.355 29.2546 105.589 29.9487L106.079 29.0771ZM103.447 26.5991L104.295 26.0683C103.747 25.1947 103.473 24.2344 103.473 23.1641H102.473H101.473C101.473 24.6002 101.848 25.93 102.6 27.13L103.447 26.5991ZM102.473 23.1641H103.473V12.5342H102.473H101.473V23.1641H102.473ZM106.079 23.1812H105.079C105.079 24.3746 105.569 25.4008 106.468 26.2133L107.139 25.4712L107.809 24.7291C107.296 24.2655 107.079 23.7651 107.079 23.1812H106.079ZM107.139 25.4712L106.481 26.2245C107.391 27.019 108.488 27.4111 109.719 27.4111V26.4111V25.4111C108.945 25.4111 108.322 25.1766 107.796 24.7179L107.139 25.4712ZM109.719 26.4111V27.4111H115.41V26.4111V25.4111H109.719V26.4111ZM115.41 26.4111V27.4111C116.649 27.4111 117.751 27.0208 118.654 26.2193L117.991 25.4712L117.327 24.7231C116.818 25.1749 116.199 25.4111 115.41 25.4111V26.4111ZM117.991 25.4712L118.661 26.2133C119.56 25.4008 120.05 24.3746 120.05 23.1812H119.05H118.05C118.05 23.7651 117.834 24.2655 117.32 24.7291L117.991 25.4712ZM119.05 23.1812H120.05V12.5171H119.05H118.05V23.1812H119.05ZM119.05 12.5171H120.05C120.05 11.3228 119.559 10.299 118.654 9.49607L117.991 10.2441L117.327 10.9922C117.835 11.4425 118.05 11.934 118.05 12.5171H119.05ZM117.991 10.2441L118.661 9.50204C117.758 8.68656 116.654 8.28711 115.41 8.28711V9.28711V10.2871C116.194 10.2871 116.81 10.5257 117.32 10.9862L117.991 10.2441ZM115.41 9.28711V8.28711H109.719V9.28711V10.2871H115.41V9.28711ZM109.719 9.28711V8.28711C108.483 8.28711 107.384 8.68833 106.474 9.49673L107.139 10.2441L107.803 10.9915C108.329 10.5239 108.95 10.2871 109.719 10.2871V9.28711ZM107.139 10.2441L106.475 9.49607C105.57 10.299 105.079 11.3228 105.079 12.5171H106.079H107.079C107.079 11.934 107.295 11.4425 107.802 10.9922L107.139 10.2441ZM106.079 12.5171H105.079V23.1812H106.079H107.079V12.5171H106.079Z" fill="black" mask="url(#path-1-outside-1_61_12)"/>
</g>
<defs>
<clipPath id="clip0_61_12">
<rect width="130" height="35" fill="white"/>
</clipPath>
</defs>
</svg>
