<svg width="157" height="156" viewBox="0 0 157 156" fill="none" xmlns="http://www.w3.org/2000/svg">
<rect width="157" height="156" rx="78" fill="white"/>
<mask id="path-2-outside-1_61_12" maskUnits="userSpaceOnUse" x="18.5" y="64.5" width="119" height="27" fill="black">
<rect fill="white" x="18.5" y="64.5" width="119" height="27"/>
<path d="M19.8926 66.1982H23.1909L31.0352 75.7856L38.8794 66.1982H42.1777V90.5H38.5718V72.3335L32.5391 79.6479H29.5483L23.4985 72.3335V90.5H19.8926V66.1982ZM53.6026 66.1982H58.0973L66.796 90.5H62.9508L60.3019 83.1855H53.5172L54.816 79.5967H59.003L55.8585 70.915L48.7491 90.5H44.9039L53.6026 66.1982ZM69.1975 73.0342C69.1975 71.7695 69.5108 70.6245 70.1374 69.5991C70.764 68.5623 71.6014 67.7363 72.6496 67.1211C73.6978 66.5059 74.8599 66.1982 76.1359 66.1982H88.8679V69.7871H76.1359C75.2131 69.7871 74.427 70.1061 73.7775 70.7441C73.1281 71.3708 72.8034 72.1341 72.8034 73.0342V83.7324C72.8034 84.5983 73.1281 85.3446 73.7775 85.9712C74.427 86.5864 75.2131 86.894 76.1359 86.894H88.8679V90.5H76.1359C74.8599 90.5 73.6978 90.1981 72.6496 89.5942C71.6014 88.9904 70.764 88.1815 70.1374 87.1675C69.5108 86.1421 69.1975 85.0142 69.1975 83.7837V73.0342ZM92.8074 66.1982H105.659C106.764 66.1982 107.767 66.4717 108.667 67.0186C109.578 67.554 110.302 68.2718 110.837 69.1719C111.384 70.0719 111.658 71.0745 111.658 72.1797V74.6064C111.658 75.7116 111.39 76.7085 110.854 77.5972C110.33 78.4858 109.612 79.1922 108.701 79.7163C107.79 80.2404 106.77 80.5024 105.642 80.5024L112.888 90.5H108.496L101.25 80.5024H98.4642V76.9136H105.659C106.331 76.9136 106.901 76.6857 107.368 76.23C107.835 75.7629 108.069 75.2046 108.069 74.5552V72.1797C108.069 71.5189 107.835 70.9549 107.368 70.4878C106.901 70.0207 106.331 69.7871 105.659 69.7871H96.4134V90.5H92.8074V66.1982ZM115.973 73.0342C115.973 71.7695 116.298 70.6245 116.947 69.5991C117.608 68.5623 118.485 67.7363 119.579 67.1211C120.673 66.5059 121.886 66.1982 123.219 66.1982H128.91C130.243 66.1982 131.456 66.5059 132.55 67.1211C133.655 67.7363 134.533 68.5623 135.182 69.5991C135.831 70.6245 136.156 71.7695 136.156 73.0342V83.6641C136.156 84.9173 135.831 86.0623 135.182 87.0991C134.533 88.1359 133.655 88.9619 132.55 89.5771C131.456 90.1924 130.243 90.5 128.91 90.5H123.219C121.886 90.5 120.673 90.1924 119.579 89.5771C118.485 88.9619 117.608 88.1359 116.947 87.0991C116.298 86.0623 115.973 84.9173 115.973 83.6641V73.0342ZM119.579 83.6812C119.579 84.5698 119.932 85.3332 120.639 85.9712C121.356 86.5978 122.217 86.9111 123.219 86.9111H128.91C129.924 86.9111 130.784 86.5978 131.491 85.9712C132.197 85.3332 132.55 84.5698 132.55 83.6812V73.0171C132.55 72.1284 132.197 71.3708 131.491 70.7441C130.784 70.1061 129.924 69.7871 128.91 69.7871H123.219C122.217 69.7871 121.356 70.1061 120.639 70.7441C119.932 71.3708 119.579 72.1284 119.579 73.0171V83.6812Z"/>
</mask>
<path d="M19.8926 66.1982H23.1909L31.0352 75.7856L38.8794 66.1982H42.1777V90.5H38.5718V72.3335L32.5391 79.6479H29.5483L23.4985 72.3335V90.5H19.8926V66.1982ZM53.6026 66.1982H58.0973L66.796 90.5H62.9508L60.3019 83.1855H53.5172L54.816 79.5967H59.003L55.8585 70.915L48.7491 90.5H44.9039L53.6026 66.1982ZM69.1975 73.0342C69.1975 71.7695 69.5108 70.6245 70.1374 69.5991C70.764 68.5623 71.6014 67.7363 72.6496 67.1211C73.6978 66.5059 74.8599 66.1982 76.1359 66.1982H88.8679V69.7871H76.1359C75.2131 69.7871 74.427 70.1061 73.7775 70.7441C73.1281 71.3708 72.8034 72.1341 72.8034 73.0342V83.7324C72.8034 84.5983 73.1281 85.3446 73.7775 85.9712C74.427 86.5864 75.2131 86.894 76.1359 86.894H88.8679V90.5H76.1359C74.8599 90.5 73.6978 90.1981 72.6496 89.5942C71.6014 88.9904 70.764 88.1815 70.1374 87.1675C69.5108 86.1421 69.1975 85.0142 69.1975 83.7837V73.0342ZM92.8074 66.1982H105.659C106.764 66.1982 107.767 66.4717 108.667 67.0186C109.578 67.554 110.302 68.2718 110.837 69.1719C111.384 70.0719 111.658 71.0745 111.658 72.1797V74.6064C111.658 75.7116 111.39 76.7085 110.854 77.5972C110.33 78.4858 109.612 79.1922 108.701 79.7163C107.79 80.2404 106.77 80.5024 105.642 80.5024L112.888 90.5H108.496L101.25 80.5024H98.4642V76.9136H105.659C106.331 76.9136 106.901 76.6857 107.368 76.23C107.835 75.7629 108.069 75.2046 108.069 74.5552V72.1797C108.069 71.5189 107.835 70.9549 107.368 70.4878C106.901 70.0207 106.331 69.7871 105.659 69.7871H96.4134V90.5H92.8074V66.1982ZM115.973 73.0342C115.973 71.7695 116.298 70.6245 116.947 69.5991C117.608 68.5623 118.485 67.7363 119.579 67.1211C120.673 66.5059 121.886 66.1982 123.219 66.1982H128.91C130.243 66.1982 131.456 66.5059 132.55 67.1211C133.655 67.7363 134.533 68.5623 135.182 69.5991C135.831 70.6245 136.156 71.7695 136.156 73.0342V83.6641C136.156 84.9173 135.831 86.0623 135.182 87.0991C134.533 88.1359 133.655 88.9619 132.55 89.5771C131.456 90.1924 130.243 90.5 128.91 90.5H123.219C121.886 90.5 120.673 90.1924 119.579 89.5771C118.485 88.9619 117.608 88.1359 116.947 87.0991C116.298 86.0623 115.973 84.9173 115.973 83.6641V73.0342ZM119.579 83.6812C119.579 84.5698 119.932 85.3332 120.639 85.9712C121.356 86.5978 122.217 86.9111 123.219 86.9111H128.91C129.924 86.9111 130.784 86.5978 131.491 85.9712C132.197 85.3332 132.55 84.5698 132.55 83.6812V73.0171C132.55 72.1284 132.197 71.3708 131.491 70.7441C130.784 70.1061 129.924 69.7871 128.91 69.7871H123.219C122.217 69.7871 121.356 70.1061 120.639 70.7441C119.932 71.3708 119.579 72.1284 119.579 73.0171V83.6812Z" fill="black"/>
<path d="M19.8926 66.1982V65.1982H18.8926V66.1982H19.8926ZM23.1909 66.1982L23.9649 65.565L23.6648 65.1982H23.1909V66.1982ZM31.0352 75.7856L30.2612 76.4189L31.0352 77.3648L31.8091 76.4189L31.0352 75.7856ZM38.8794 66.1982V65.1982H38.4055L38.1054 65.565L38.8794 66.1982ZM42.1777 66.1982H43.1777V65.1982H42.1777V66.1982ZM42.1777 90.5V91.5H43.1777V90.5H42.1777ZM38.5718 90.5H37.5718V91.5H38.5718V90.5ZM38.5718 72.3335H39.5718V69.5494L37.8003 71.6972L38.5718 72.3335ZM32.5391 79.6479V80.6479H33.0105L33.3105 80.2842L32.5391 79.6479ZM29.5483 79.6479L28.7778 80.2853L29.0777 80.6479H29.5483V79.6479ZM23.4985 72.3335L24.2691 71.6961L22.4985 69.5555V72.3335H23.4985ZM23.4985 90.5V91.5H24.4985V90.5H23.4985ZM19.8926 90.5H18.8926V91.5H19.8926V90.5ZM19.8926 66.1982V67.1982H23.1909V66.1982V65.1982H19.8926V66.1982ZM23.1909 66.1982L22.417 66.8315L30.2612 76.4189L31.0352 75.7856L31.8091 75.1524L23.9649 65.565L23.1909 66.1982ZM31.0352 75.7856L31.8091 76.4189L39.6534 66.8315L38.8794 66.1982L38.1054 65.565L30.2612 75.1524L31.0352 75.7856ZM38.8794 66.1982V67.1982H42.1777V66.1982V65.1982H38.8794V66.1982ZM42.1777 66.1982H41.1777V90.5H42.1777H43.1777V66.1982H42.1777ZM42.1777 90.5V89.5H38.5718V90.5V91.5H42.1777V90.5ZM38.5718 90.5H39.5718V72.3335H38.5718H37.5718V90.5H38.5718ZM38.5718 72.3335L37.8003 71.6972L31.7676 79.0117L32.5391 79.6479L33.3105 80.2842L39.3432 72.9698L38.5718 72.3335ZM32.5391 79.6479V78.6479H29.5483V79.6479V80.6479H32.5391V79.6479ZM29.5483 79.6479L30.3189 79.0106L24.2691 71.6961L23.4985 72.3335L22.728 72.9708L28.7778 80.2853L29.5483 79.6479ZM23.4985 72.3335H22.4985V90.5H23.4985H24.4985V72.3335H23.4985ZM23.4985 90.5V89.5H19.8926V90.5V91.5H23.4985V90.5ZM19.8926 90.5H20.8926V66.1982H19.8926H18.8926V90.5H19.8926ZM53.6026 66.1982V65.1982H52.8984L52.6611 65.8612L53.6026 66.1982ZM58.0973 66.1982L59.0388 65.8612L58.8015 65.1982H58.0973V66.1982ZM66.796 90.5V91.5H68.2161L67.7375 90.163L66.796 90.5ZM62.9508 90.5L62.0105 90.8405L62.2494 91.5H62.9508V90.5ZM60.3019 83.1855L61.2421 82.845L61.0033 82.1855H60.3019V83.1855ZM53.5172 83.1855L52.5769 82.8452L52.0918 84.1855H53.5172V83.1855ZM54.816 79.5967V78.5967H54.1144L53.8757 79.2564L54.816 79.5967ZM59.003 79.5967V80.5967H60.4288L59.9433 79.2561L59.003 79.5967ZM55.8585 70.915L56.7987 70.5745L55.8595 67.9815L54.9185 70.5738L55.8585 70.915ZM48.7491 90.5V91.5H49.45L49.6891 90.8412L48.7491 90.5ZM44.9039 90.5L43.9624 90.163L43.4838 91.5H44.9039V90.5ZM53.6026 66.1982V67.1982H58.0973V66.1982V65.1982H53.6026V66.1982ZM58.0973 66.1982L57.1558 66.5352L65.8545 90.837L66.796 90.5L67.7375 90.163L59.0388 65.8612L58.0973 66.1982ZM66.796 90.5V89.5H62.9508V90.5V91.5H66.796V90.5ZM62.9508 90.5L63.891 90.1595L61.2421 82.845L60.3019 83.1855L59.3616 83.5261L62.0105 90.8405L62.9508 90.5ZM60.3019 83.1855V82.1855H53.5172V83.1855V84.1855H60.3019V83.1855ZM53.5172 83.1855L54.4575 83.5259L55.7563 79.937L54.816 79.5967L53.8757 79.2564L52.5769 82.8452L53.5172 83.1855ZM54.816 79.5967V80.5967H59.003V79.5967V78.5967H54.816V79.5967ZM59.003 79.5967L59.9433 79.2561L56.7987 70.5745L55.8585 70.915L54.9183 71.2556L58.0628 79.9372L59.003 79.5967ZM55.8585 70.915L54.9185 70.5738L47.8091 90.1588L48.7491 90.5L49.6891 90.8412L56.7985 71.2563L55.8585 70.915ZM48.7491 90.5V89.5H44.9039V90.5V91.5H48.7491V90.5ZM44.9039 90.5L45.8454 90.837L54.5441 66.5352L53.6026 66.1982L52.6611 65.8612L43.9624 90.163L44.9039 90.5ZM70.1374 69.5991L70.9907 70.1206L70.9932 70.1164L70.1374 69.5991ZM88.8679 66.1982H89.8679V65.1982H88.8679V66.1982ZM88.8679 69.7871V70.7871H89.8679V69.7871H88.8679ZM73.7775 70.7441L74.4719 71.4638L74.4784 71.4575L73.7775 70.7441ZM73.7775 85.9712L73.0831 86.6908L73.0898 86.6971L73.7775 85.9712ZM88.8679 86.894H89.8679V85.894H88.8679V86.894ZM88.8679 90.5V91.5H89.8679V90.5H88.8679ZM70.1374 87.1675L69.2841 87.6889L69.2867 87.6932L70.1374 87.1675ZM69.1975 73.0342H70.1975C70.1975 71.9435 70.4651 70.9806 70.9907 70.1206L70.1374 69.5991L69.2841 69.0777C68.5564 70.2684 68.1975 71.5956 68.1975 73.0342H69.1975ZM70.1374 69.5991L70.9932 70.1164C71.5335 69.2224 72.2506 68.5148 73.1558 67.9835L72.6496 67.1211L72.1434 66.2587C70.9523 66.9578 69.9945 67.9023 69.2816 69.0819L70.1374 69.5991ZM72.6496 67.1211L73.1558 67.9835C74.0427 67.4629 75.0286 67.1982 76.1359 67.1982V66.1982V65.1982C74.6912 65.1982 73.3529 65.5488 72.1434 66.2587L72.6496 67.1211ZM76.1359 66.1982V67.1982H88.8679V66.1982V65.1982H76.1359V66.1982ZM88.8679 66.1982H87.8679V69.7871H88.8679H89.8679V66.1982H88.8679ZM88.8679 69.7871V68.7871H76.1359V69.7871V70.7871H88.8679V69.7871ZM76.1359 69.7871V68.7871C74.955 68.7871 73.916 69.2063 73.0767 70.0308L73.7775 70.7441L74.4784 71.4575C74.9379 71.006 75.4712 70.7871 76.1359 70.7871V69.7871ZM73.7775 70.7441L73.0832 70.0245C72.239 70.839 71.8034 71.8619 71.8034 73.0342H72.8034H73.8034C73.8034 72.4063 74.0172 71.9025 74.4719 71.4638L73.7775 70.7441ZM72.8034 73.0342H71.8034V83.7324H72.8034H73.8034V73.0342H72.8034ZM72.8034 83.7324H71.8034C71.8034 84.8823 72.2477 85.8846 73.0832 86.6908L73.7775 85.9712L74.4719 85.2516C74.0086 84.8045 73.8034 84.3143 73.8034 83.7324H72.8034ZM73.7775 85.9712L73.0898 86.6971C73.9314 87.4944 74.9662 87.894 76.1359 87.894V86.894V85.894C75.46 85.894 74.9225 85.6784 74.4653 85.2452L73.7775 85.9712ZM76.1359 86.894V87.894H88.8679V86.894V85.894H76.1359V86.894ZM88.8679 86.894H87.8679V90.5H88.8679H89.8679V86.894H88.8679ZM88.8679 90.5V89.5H76.1359V90.5V91.5H88.8679V90.5ZM76.1359 90.5V89.5C75.0251 89.5 74.0367 89.2393 73.1488 88.7277L72.6496 89.5942L72.1504 90.4607C73.3589 91.1569 74.6947 91.5 76.1359 91.5V90.5ZM72.6496 89.5942L73.1488 88.7277C72.242 88.2053 71.5262 87.5126 70.9881 86.6418L70.1374 87.1675L69.2867 87.6932C70.0018 88.8503 70.9609 89.7755 72.1504 90.4607L72.6496 89.5942ZM70.1374 87.1675L70.9907 86.646C70.4624 85.7816 70.1975 84.8348 70.1975 83.7837H69.1975H68.1975C68.1975 85.1935 68.5592 86.5026 69.2841 87.6889L70.1374 87.1675ZM69.1975 83.7837H70.1975V73.0342H69.1975H68.1975V83.7837H69.1975ZM92.8074 66.1982V65.1982H91.8074V66.1982H92.8074ZM108.667 67.0186L108.148 67.8732L108.154 67.877L108.16 67.8808L108.667 67.0186ZM110.837 69.1719L109.978 69.6832L109.983 69.6911L110.837 69.1719ZM110.854 77.5972L109.998 77.081L109.993 77.0892L110.854 77.5972ZM108.701 79.7163L109.199 80.5832L108.701 79.7163ZM105.642 80.5024V79.5024H103.682L104.832 81.0893L105.642 80.5024ZM112.888 90.5V91.5H114.848L113.698 89.9131L112.888 90.5ZM108.496 90.5L107.686 91.0869L107.986 91.5H108.496V90.5ZM101.25 80.5024L102.059 79.9156L101.76 79.5024H101.25V80.5024ZM98.4642 80.5024H97.4642V81.5024H98.4642V80.5024ZM98.4642 76.9136V75.9136H97.4642V76.9136H98.4642ZM107.368 76.23L108.066 76.9458L108.075 76.9371L107.368 76.23ZM96.4134 69.7871V68.7871H95.4134V69.7871H96.4134ZM96.4134 90.5V91.5H97.4134V90.5H96.4134ZM92.8074 90.5H91.8074V91.5H92.8074V90.5ZM92.8074 66.1982V67.1982H105.659V66.1982V65.1982H92.8074V66.1982ZM105.659 66.1982V67.1982C106.59 67.1982 107.412 67.4262 108.148 67.8732L108.667 67.0186L109.186 66.1639C108.122 65.5172 106.938 65.1982 105.659 65.1982V66.1982ZM108.667 67.0186L108.16 67.8808C108.928 68.3317 109.529 68.9294 109.978 69.6832L110.837 69.1719L111.697 68.6606C111.074 67.6143 110.229 66.7764 109.173 66.1563L108.667 67.0186ZM110.837 69.1719L109.983 69.6911C110.43 70.4268 110.658 71.2482 110.658 72.1797H111.658H112.658C112.658 70.9009 112.339 69.7171 111.692 68.6526L110.837 69.1719ZM111.658 72.1797H110.658V74.6064H111.658H112.658V72.1797H111.658ZM111.658 74.6064H110.658C110.658 75.542 110.433 76.3584 109.998 77.0811L110.854 77.5972L111.711 78.1133C112.346 77.0586 112.658 75.8811 112.658 74.6064H111.658ZM110.854 77.5972L109.993 77.0892C109.558 77.8259 108.967 78.4098 108.202 78.8494L108.701 79.7163L109.199 80.5832C110.258 79.9746 111.102 79.1458 111.716 78.1052L110.854 77.5972ZM108.701 79.7163L108.202 78.8494C107.454 79.28 106.608 79.5024 105.642 79.5024V80.5024V81.5024C106.932 81.5024 108.125 81.2008 109.199 80.5832L108.701 79.7163ZM105.642 80.5024L104.832 81.0893L112.078 91.0869L112.888 90.5L113.698 89.9131L106.452 79.9156L105.642 80.5024ZM112.888 90.5V89.5H108.496V90.5V91.5H112.888V90.5ZM108.496 90.5L109.306 89.9131L102.059 79.9156L101.25 80.5024L100.44 81.0893L107.686 91.0869L108.496 90.5ZM101.25 80.5024V79.5024H98.4642V80.5024V81.5024H101.25V80.5024ZM98.4642 80.5024H99.4642V76.9136H98.4642H97.4642V80.5024H98.4642ZM98.4642 76.9136V77.9136H105.659V76.9136V75.9136H98.4642V76.9136ZM105.659 76.9136V77.9136C106.583 77.9136 107.406 77.5897 108.066 76.9458L107.368 76.23L106.67 75.5142C106.395 75.7817 106.079 75.9136 105.659 75.9136V76.9136ZM107.368 76.23L108.075 76.9371C108.726 76.2861 109.069 75.4749 109.069 74.5552H108.069H107.069C107.069 74.9343 106.944 75.2397 106.661 75.5229L107.368 76.23ZM108.069 74.5552H109.069V72.1797H108.069H107.069V74.5552H108.069ZM108.069 72.1797H109.069C109.069 71.2538 108.73 70.4354 108.075 69.7807L107.368 70.4878L106.661 71.1949C106.94 71.4744 107.069 71.784 107.069 72.1797H108.069ZM107.368 70.4878L108.075 69.7807C107.417 69.1224 106.591 68.7871 105.659 68.7871V69.7871V70.7871C106.071 70.7871 106.385 70.919 106.661 71.1949L107.368 70.4878ZM105.659 69.7871V68.7871H96.4134V69.7871V70.7871H105.659V69.7871ZM96.4134 69.7871H95.4134V90.5H96.4134H97.4134V69.7871H96.4134ZM96.4134 90.5V89.5H92.8074V90.5V91.5H96.4134V90.5ZM92.8074 90.5H93.8074V66.1982H92.8074H91.8074V90.5H92.8074ZM116.947 69.5991L116.104 69.0616L116.102 69.0641L116.947 69.5991ZM132.55 67.1211L132.06 67.9927L132.064 67.9948L132.55 67.1211ZM135.182 69.5991L134.335 70.13L134.337 70.1342L135.182 69.5991ZM132.55 89.5771L132.064 88.7034L132.06 88.7056L132.55 89.5771ZM116.947 87.0991L116.1 87.63L116.104 87.6366L116.947 87.0991ZM120.639 85.9712L119.968 86.7133L119.975 86.719L119.981 86.7245L120.639 85.9712ZM131.491 85.9712L132.154 86.7193L132.161 86.7133L131.491 85.9712ZM131.491 70.7441L130.82 71.4863L130.827 71.4922L131.491 70.7441ZM120.639 70.7441L121.302 71.4922L121.303 71.4915L120.639 70.7441ZM115.973 73.0342H116.973C116.973 71.9506 117.248 70.9926 117.792 70.1342L116.947 69.5991L116.102 69.0641C115.347 70.2564 114.973 71.5884 114.973 73.0342H115.973ZM116.947 69.5991L117.79 70.1366C118.361 69.2415 119.116 68.529 120.069 67.9927L119.579 67.1211L119.089 66.2495C117.855 66.9437 116.855 67.8832 116.104 69.0616L116.947 69.5991ZM119.579 67.1211L120.069 67.9927C121.004 67.4669 122.047 67.1982 123.219 67.1982V66.1982V65.1982C121.725 65.1982 120.342 65.5448 119.089 66.2495L119.579 67.1211ZM123.219 66.1982V67.1982H128.91V66.1982V65.1982H123.219V66.1982ZM128.91 66.1982V67.1982C130.082 67.1982 131.125 67.4669 132.06 67.9927L132.55 67.1211L133.04 66.2495C131.788 65.5448 130.404 65.1982 128.91 65.1982V66.1982ZM132.55 67.1211L132.064 67.9948C133.027 68.5309 133.778 69.241 134.335 70.13L135.182 69.5991L136.03 69.0683C135.287 67.8836 134.284 66.9417 133.037 66.2474L132.55 67.1211ZM135.182 69.5991L134.337 70.1342C134.881 70.9926 135.156 71.9506 135.156 73.0342H136.156H137.156C137.156 71.5884 136.782 70.2564 136.027 69.0641L135.182 69.5991ZM136.156 73.0342H135.156V83.6641H136.156H137.156V73.0342H136.156ZM136.156 83.6641H135.156C135.156 84.7344 134.882 85.6947 134.335 86.5683L135.182 87.0991L136.03 87.63C136.781 86.43 137.156 85.1002 137.156 83.6641H136.156ZM135.182 87.0991L134.335 86.5683C133.778 87.4572 133.027 88.1673 132.064 88.7034L132.55 89.5771L133.037 90.4509C134.284 89.7565 135.287 88.8146 136.03 87.63L135.182 87.0991ZM132.55 89.5771L132.06 88.7056C131.125 89.2313 130.082 89.5 128.91 89.5V90.5V91.5C130.404 91.5 131.788 91.1534 133.04 90.4487L132.55 89.5771ZM128.91 90.5V89.5H123.219V90.5V91.5H128.91V90.5ZM123.219 90.5V89.5C122.047 89.5 121.004 89.2313 120.069 88.7056L119.579 89.5771L119.089 90.4487C120.342 91.1534 121.725 91.5 123.219 91.5V90.5ZM119.579 89.5771L120.069 88.7056C119.116 88.1692 118.361 87.4568 117.79 86.5616L116.947 87.0991L116.104 87.6366C116.855 88.815 117.855 89.7546 119.089 90.4487L119.579 89.5771ZM116.947 87.0991L117.795 86.5683C117.247 85.6947 116.973 84.7344 116.973 83.6641H115.973H114.973C114.973 85.1002 115.348 86.43 116.1 87.63L116.947 87.0991ZM115.973 83.6641H116.973V73.0342H115.973H114.973V83.6641H115.973ZM119.579 83.6812H118.579C118.579 84.8746 119.069 85.9008 119.968 86.7133L120.639 85.9712L121.309 85.2291C120.796 84.7655 120.579 84.2651 120.579 83.6812H119.579ZM120.639 85.9712L119.981 86.7245C120.891 87.519 121.988 87.9111 123.219 87.9111V86.9111V85.9111C122.445 85.9111 121.822 85.6766 121.296 85.2179L120.639 85.9712ZM123.219 86.9111V87.9111H128.91V86.9111V85.9111H123.219V86.9111ZM128.91 86.9111V87.9111C130.149 87.9111 131.251 87.5208 132.154 86.7193L131.491 85.9712L130.827 85.2231C130.318 85.6749 129.699 85.9111 128.91 85.9111V86.9111ZM131.491 85.9712L132.161 86.7133C133.06 85.9008 133.55 84.8746 133.55 83.6812H132.55H131.55C131.55 84.2651 131.334 84.7655 130.82 85.2291L131.491 85.9712ZM132.55 83.6812H133.55V73.0171H132.55H131.55V83.6812H132.55ZM132.55 73.0171H133.55C133.55 71.8228 133.059 70.799 132.154 69.9961L131.491 70.7441L130.827 71.4922C131.335 71.9425 131.55 72.434 131.55 73.0171H132.55ZM131.491 70.7441L132.161 70.002C131.258 69.1866 130.154 68.7871 128.91 68.7871V69.7871V70.7871C129.694 70.7871 130.31 71.0257 130.82 71.4862L131.491 70.7441ZM128.91 69.7871V68.7871H123.219V69.7871V70.7871H128.91V69.7871ZM123.219 69.7871V68.7871C121.983 68.7871 120.884 69.1883 119.974 69.9967L120.639 70.7441L121.303 71.4915C121.829 71.0239 122.45 70.7871 123.219 70.7871V69.7871ZM120.639 70.7441L119.975 69.9961C119.07 70.799 118.579 71.8228 118.579 73.0171H119.579H120.579C120.579 72.434 120.795 71.9425 121.302 71.4922L120.639 70.7441ZM119.579 73.0171H118.579V83.6812H119.579H120.579V73.0171H119.579Z" fill="black" mask="url(#path-2-outside-1_61_12)"/>
</svg>
